#!OML:ASF X:\für Bonn\!DataBase\2005_08_12_Daniel\c3d\Daniel.ASF
:FULLY-SPECIFIED
:DEGREES
297
root 11.0063 16.5953 -0.422994 -742.609 -68.0141 735.774
lowerback 11.1332 -6.38386 -5.37665
upperback 3.52497 -9.26553 -2.87793
thorax -2.12985 -4.66675 1.1355
lowerneck 7.35473 5.49392 4.91727
upperneck 2.68096 7.61018 -2.94369
head -0.0843733 3.84059 -1.90176
rclavicle -1.53735e-013 2.52457e-014
rhumerus -40.0433 0.728713 -94.0789
rradius 52.0983
rwrist -5.56862
rhand -23.3471 15.0723
rfingers 7.12502
rthumb 3.10787 -14.8848
lclavicle -1.53735e-013 2.52457e-014
lhumerus -42.9028 11.1925 83.0256
lradius 122.971
lwrist 197.258
lhand -9.06221 17.6659
lfingers 7.12502
lthumb 16.8866 46.9518
rfemur -28.2544 26.5754 -4.10266
rtibia 36.9181
rfoot -25.3826 -17.1541
rtoes -8.06745
lfemur 7.71244 -12.6723 -26.5343
ltibia 39.0488
lfoot -35.5098 -13.1916
ltoes -11.2941
298
root 11.1309 16.6104 -0.403838 -742.973 -68.104 736.01
lowerback 11.4025 -6.33142 -5.71623
upperback 3.68214 -9.25898 -3.04304
thorax -2.08622 -4.6709 1.16801
lowerneck 7.18526 5.32352 4.89093
upperneck 2.72845 7.37334 -2.60813
head -0.0646815 3.71798 -1.77925
rclavicle 9.8299e-014 -1.94809e-014
rhumerus -40.0888 0.681284 -94.261
rradius 52.591
rwrist -5.729
rhand -23.1881 15.3496
rfingers 7.12502
rthumb 3.26141 -14.6052
lclavicle 9.8299e-014 -1.94809e-014
lhumerus -42.8361 11.034 82.6664
lradius 122.779
lwrist 197.176
lhand -9.20342 17.5053
lfingers 7.12502
lthumb 16.7506 46.8026
rfemur -28.1439 26.7898 -4.24257
rtibia 36.7995
rfoot -27.2521 -17.8756
rtoes -7.33562
lfemur 7.42153 -12.5094 -26.7564
ltibia 39.0711
lfoot -35.3078 -13.1505
ltoes -11.2168
299
root 11.2549 16.6258 -0.385176 -743.328 -68.2416 736.215
lowerback 11.7033 -6.2653 -6.03216
upperback 3.82281 -9.2365 -3.19925
thorax -2.07975 -4.6659 1.20044
lowerneck 7.0938 5.16209 4.89691
upperneck 2.74054 7.15347 -2.31267
head -0.0650138 3.60471 -1.67953
rclavicle -1.1778e-013 -1.59028e-014
rhumerus -40.1597 0.601692 -94.4351
rradius 53.0788
rwrist -5.76677
rhand -23.0518 15.5769
rfingers 7.12502
rthumb 3.39306 -14.3758
lclavicle -1.1778e-013 -1.59028e-014
lhumerus -42.7925 10.8469 82.2579
lradius 122.557
lwrist 197.108
lhand -9.35356 17.2175
lfingers 7.12502
lthumb 16.6061 46.5271
rfemur -28.0098 26.6233 -4.23268
rtibia 36.7267
rfoot -28.9167 -18.4746
rtoes -6.83596
lfemur 7.13002 -12.2936 -26.9334
ltibia 39.1327
lfoot -35.0986 -13.14
ltoes -11.0872
300
root 11.3787 16.6411 -0.366385 -743.721 -68.3775 736.452
lowerback 12.0022 -6.1859 -6.35184
upperback 3.97743 -9.19821 -3.34857
thorax -2.05655 -4.65448 1.23826
lowerneck 6.93667 5.00032 4.90199
upperneck 2.77514 6.93028 -2.02996
head -0.0463501 3.49016 -1.58132
rclavicle 5.90887e-014 2.94201e-014
rhumerus -40.1701 0.498197 -94.579
rradius 53.5545
rwrist -5.76524
rhand -22.8975 15.7116
rfingers 7.12502
rthumb 3.5421 -14.2387
lclavicle 5.90887e-014 2.94201e-014
lhumerus -42.6907 10.6851 81.8506
lradius 122.267
lwrist 196.975
lhand -9.58836 16.9221
lfingers 7.12502
lthumb 16.38 46.2504
rfemur -27.8334 26.0552 -4.10954
rtibia 36.702
rfoot -30.2995 -19.0508
rtoes -6.22028
lfemur 6.81487 -12.081 -27.127
ltibia 39.2412
lfoot -34.8574 -13.1455
ltoes -10.8754
301
root 11.5015 16.6558 -0.348161 -744.105 -68.564 736.661
lowerback 12.3279 -6.09196 -6.68196
upperback 4.11566 -9.14488 -3.45215
thorax -2.05645 -4.63469 1.33057
lowerneck 6.7906 4.85274 4.88462
upperneck 2.81157 6.72476 -1.80298
head -0.0265724 3.38505 -1.49802
rclavicle -7.85199e-015 3.85642e-014
rhumerus -40.1744 0.458404 -94.6862
rradius 53.9971
rwrist -5.74945
rhand -22.8098 15.8263
rfingers 7.12502
rthumb 3.62675 -14.1226
lclavicle -7.85199e-015 3.85642e-014
lhumerus -42.6019 10.5949 81.4523
lradius 121.932
lwrist 196.869
lhand -9.9285 16.6431
lfingers 7.12502
lthumb 16.0525 45.9981
rfemur -27.6188 25.0493 -3.80905
rtibia 36.7411
rfoot -31.225 -19.5294
rtoes -6.30576
lfemur 6.50849 -11.8579 -27.296
ltibia 39.3878
lfoot -34.623 -13.1356
ltoes -10.6361
302
root 11.6237 16.67 -0.330348 -744.444 -68.747 736.827
lowerback 12.6589 -6.00947 -7.03471
upperback 4.24705 -9.11025 -3.51382
thorax -2.05432 -4.62442 1.48013
lowerneck 6.67024 4.73408 4.8208
upperneck 2.79693 6.55657 -1.60769
head -0.0256749 3.29847 -1.41956
rclavicle -1.14798e-014 3.97569e-016
rhumerus -40.1402 0.513355 -94.7645
rradius 54.4228
rwrist -5.73875
rhand -22.745 15.8711
rfingers 7.12502
rthumb 3.68935 -14.0767
lclavicle -1.14798e-014 3.97569e-016
lhumerus -42.4908 10.5399 81.0554
lradius 121.563
lwrist 196.724
lhand -10.1995 16.3538
lfingers 7.12502
lthumb 15.7915 45.7297
rfemur -27.3843 23.605 -3.38058
rtibia 36.848
rfoot -31.7866 -19.8073
rtoes -6.68921
lfemur 6.17518 -11.6481 -27.4442
ltibia 39.5693
lfoot -34.3704 -13.1174
ltoes -10.3675
303
root 11.7443 16.6837 -0.312586 -744.843 -68.9591 737.012
lowerback 13.0141 -5.93002 -7.39258
upperback 4.38369 -9.08531 -3.57425
thorax -2.05781 -4.61948 1.63702
lowerneck 6.56728 4.64017 4.77528
upperneck 2.78862 6.42323 -1.44184
head -0.022542 3.22979 -1.35463
rclavicle -1.799e-014 1.59028e-015
rhumerus -40.0971 0.665625 -94.8568
rradius 54.8351
rwrist -5.69854
rhand -22.6667 15.8866
rfingers 7.12502
rthumb 3.76501 -14.0599
lclavicle -1.799e-014 1.59028e-015
lhumerus -42.404 10.529 80.6207
lradius 121.131
lwrist 196.541
lhand -10.4139 16.1512
lfingers 7.12502
lthumb 15.585 45.5433
rfemur -27.1222 21.7683 -2.83477
rtibia 37.0364
rfoot -32.0256 -19.8278
rtoes -6.74514
lfemur 5.89306 -11.4256 -27.6055
ltibia 39.7618
lfoot -34.1242 -13.0506
ltoes -10.1898
304
root 11.863 16.6966 -0.294656 -745.211 -69.1907 737.108
lowerback 13.4153 -5.84376 -7.70121
upperback 4.52691 -9.05311 -3.6441
thorax -2.08861 -4.61037 1.76252
lowerneck 6.49011 4.54475 4.78005
upperneck 2.76377 6.29248 -1.29192
head -0.0263977 3.16286 -1.30459
rclavicle 3.02153e-014 -7.95139e-015
rhumerus -40.0455 0.85659 -94.9845
rradius 55.1951
rwrist -5.70195
rhand -22.685 15.9312
rfingers 7.12502
rthumb 3.74729 -14.0156
lclavicle 3.02153e-014 -7.95139e-015
lhumerus -42.3326 10.4686 80.1562
lradius 120.6
lwrist 196.303
lhand -10.543 16.0625
lfingers 7.12502
lthumb 15.4607 45.4643
rfemur -26.8143 19.7327 -2.1654
rtibia 37.2993
rfoot -31.9547 -19.8153
rtoes -7.06912
lfemur 5.6815 -11.2091 -27.7356
ltibia 39.9654
lfoot -33.9073 -12.9968
ltoes -9.99283
305
root 11.9798 16.7111 -0.277641 -745.552 -69.4465 737.172
lowerback 13.7995 -5.75803 -7.99551
upperback 4.66602 -9.01995 -3.69804
thorax -2.11382 -4.60109 1.89439
lowerneck 6.43916 4.4709 4.74295
upperneck 2.72049 6.18923 -1.1509
head -0.0402318 3.10927 -1.25183
rclavicle 1.80894e-014 1.11319e-014
rhumerus -39.9856 1.16819 -95.1208
rradius 55.5608
rwrist -5.75346
rhand -22.7244 15.9142
rfingers 7.12502
rthumb 3.70928 -14.0333
lclavicle 1.80894e-014 1.11319e-014
lhumerus -42.2694 10.4221 79.658
lradius 120.003
lwrist 196.116
lhand -10.6262 16.0665
lfingers 7.12502
lthumb 15.3806 45.4744
rfemur -26.5275 17.5948 -1.44552
rtibia 37.6407
rfoot -31.5553 -19.7641
rtoes -7.29236
lfemur 5.47219 -10.9648 -27.8302
ltibia 40.1744
lfoot -33.6777 -12.9458
ltoes -9.91331
306
root 12.0965 16.7263 -0.26122 -745.686 -69.7356 737.057
lowerback 14.151 -5.68403 -8.19093
upperback 4.79417 -8.98725 -3.74396
thorax -2.14684 -4.59084 1.97915
lowerneck 6.38449 4.40149 4.73202
upperneck 2.67284 6.09384 -1.0384
head -0.0527124 3.06008 -1.21264
rclavicle -3.32964e-015 4.53229e-014
rhumerus -39.9452 1.49432 -95.2738
rradius 55.9556
rwrist -5.83803
rhand -22.8009 15.9347
rfingers 7.12502
rthumb 3.6354 -14.0141
lclavicle -3.32964e-015 4.53229e-014
lhumerus -42.21 10.3563 79.1397
lradius 119.314
lwrist 195.916
lhand -10.642 16.1927
lfingers 7.12502
lthumb 15.3653 45.6017
rfemur -26.2855 15.3406 -0.64407
rtibia 38.0373
rfoot -30.8227 -19.5897
rtoes -7.1518
lfemur 5.20437 -10.7247 -27.8273
ltibia 40.4071
lfoot -33.457 -12.9166
ltoes -9.76847
307
root 12.2128 16.7411 -0.24514 -745.719 -70.0565 736.919
lowerback 14.4237 -5.60779 -8.3284
upperback 4.88142 -8.9368 -3.7776
thorax -2.18918 -4.56932 2.03713
lowerneck 6.32407 4.33936 4.63825
upperneck 2.67408 6.00122 -0.877299
head -0.0526666 3.0115 -1.1432
rclavicle -8.94531e-015 7.15625e-015
rhumerus -39.9482 1.81856 -95.3913
rradius 56.3774
rwrist -5.87371
rhand -22.8626 15.8892
rfingers 7.12502
rthumb 3.57574 -14.0606
lclavicle -8.94531e-015 7.15625e-015
lhumerus -42.1676 10.2741 78.6327
lradius 118.539
lwrist 195.744
lhand -10.6027 16.3449
lfingers 7.12502
lthumb 15.4032 45.751
rfemur -26.1328 13.0312 0.156968
rtibia 38.4887
rfoot -29.8198 -19.2024
rtoes -6.70606
lfemur 4.8198 -10.4617 -27.7811
ltibia 40.6672
lfoot -33.2182 -12.8904
ltoes -9.67747
308
root 12.328 16.7566 -0.230558 -745.541 -70.4016 736.612
lowerback 14.6421 -5.54605 -8.38717
upperback 4.9542 -8.8886 -3.80274
thorax -2.22836 -4.54784 2.05702
lowerneck 6.30241 4.28183 4.55045
upperneck 2.62685 5.91792 -0.727248
head -0.0730554 2.9673 -1.08054
rclavicle -1.46206e-013 -1.43125e-014
rhumerus -39.9398 2.15869 -95.5243
rradius 56.7599
rwrist -5.92172
rhand -22.9387 15.9088
rfingers 7.12502
rthumb 3.50229 -14.0422
lclavicle -1.46206e-013 -1.43125e-014
lhumerus -42.135 10.1595 78.0981
lradius 117.677
lwrist 195.635
lhand -10.5336 16.5291
lfingers 7.12502
lthumb 15.4697 45.9301
rfemur -26.0186 10.7568 1.01361
rtibia 38.9836
rfoot -28.7405 -18.6288
rtoes -6.80606
lfemur 4.35991 -10.2122 -27.6443
ltibia 40.9628
lfoot -32.9765 -12.8812
ltoes -9.49823
309
root 12.4419 16.7712 -0.216492 -745.343 -70.7498 736.296
lowerback 14.8549 -5.48957 -8.43748
upperback 5.00268 -8.84632 -3.82005
thorax -2.28967 -4.52723 2.08225
lowerneck 6.3178 4.25143 4.40845
upperneck 2.58787 5.86835 -0.551259
head -0.0980972 2.93918 -1.00217
rclavicle -2.73329e-014 -1.51076e-014
rhumerus -39.9632 2.52678 -95.6474
rradius 57.1457
rwrist -5.95152
rhand -23.009 15.859
rfingers 7.12502
rthumb 3.43437 -14.0931
lclavicle -2.73329e-014 -1.51076e-014
lhumerus -42.1376 10.0698 77.581
lradius 116.759
lwrist 195.526
lhand -10.4555 16.6551
lfingers 7.12502
lthumb 15.545 46.0503
rfemur -25.9187 8.54956 1.85569
rtibia 39.5435
rfoot -27.7042 -17.7914
rtoes -7.45945
lfemur 3.87116 -9.92842 -27.4877
ltibia 41.283
lfoot -32.7527 -12.9008
ltoes -9.47981
